<svg width="336" height="354" viewBox="0 0 336 354" fill="none" xmlns="http://www.w3.org/2000/svg">
<mask id="mask0_3148_199673" style="mask-type:alpha" maskUnits="userSpaceOnUse" x="-20" y="-11" width="376" height="376">
<circle cx="168" cy="177" r="188" fill="url(#paint0_radial_3148_199673)"/>
</mask>
<g mask="url(#mask0_3148_199673)">
</g>
<g clip-path="url(#clip0_3148_199673)">
<mask id="mask1_3148_199673" style="mask-type:alpha" maskUnits="userSpaceOnUse" x="-16" y="-7" width="368" height="368">
<circle cx="168" cy="177" r="184" fill="url(#paint1_radial_3148_199673)"/>
</mask>
<g mask="url(#mask1_3148_199673)">
<g opacity="0.1">
<circle opacity="0.3" cx="17.5842" cy="26.5842" r="1.5842" fill="#F8F8F8"/>
<circle cx="37.505" cy="26.505" r="1.505" fill="#F8F8F8"/>
<circle cx="57.8862" cy="26.8862" r="1.3862" fill="#F8F8F8"/>
<circle cx="77.7278" cy="26.7278" r="1.2278" fill="#F8F8F8"/>
<circle cx="97.5892" cy="26.5892" r="1.0892" fill="#F8F8F8"/>
<circle cx="117.911" cy="26.911" r="0.911" fill="#F8F8F8"/>
<circle cx="137.733" cy="26.7328" r="0.7328" fill="#F8F8F8"/>
<circle cx="157.574" cy="26.5744" r="0.5744" fill="#F8F8F8"/>
<circle cx="177.5" cy="26.5" r="0.5" fill="#F8F8F8"/>
<circle cx="197.5" cy="26.5" r="0.5" fill="#F8F8F8"/>
<circle cx="217.5" cy="26.5" r="0.5" fill="#F8F8F8"/>
<circle cx="237.5" cy="26.5" r="0.5" fill="#F8F8F8"/>
<circle cx="257.5" cy="26.5" r="0.5" fill="#F8F8F8"/>
<circle cx="277.5" cy="26.5" r="0.5" fill="#F8F8F8"/>
<circle cx="297.5" cy="26.5" r="0.5" fill="#F8F8F8"/>
<circle cx="317.5" cy="26.5" r="0.5" fill="#F8F8F8"/>
<circle opacity="0.3" cx="17.5248" cy="46.5248" r="1.5248" fill="#F8F8F8"/>
<circle opacity="0.4" cx="37.9456" cy="46.9456" r="1.4456" fill="#F8F8F8"/>
<circle opacity="0.4" cx="57.807" cy="46.807" r="1.307" fill="#F8F8F8"/>
<circle opacity="0.4" cx="77.6486" cy="46.6486" r="1.1486" fill="#F8F8F8"/>
<circle cx="97.9902" cy="46.9902" r="0.9902" fill="#F8F8F8"/>
<circle cx="117.812" cy="46.812" r="0.812" fill="#F8F8F8"/>
<circle cx="137.634" cy="46.6338" r="0.6338" fill="#F8F8F8"/>
<circle cx="157.5" cy="46.5" r="0.5" fill="#F8F8F8"/>
<circle cx="177.5" cy="46.5" r="0.5" fill="#F8F8F8"/>
<circle cx="197.5" cy="46.5" r="0.5" fill="#F8F8F8"/>
<circle cx="217.5" cy="46.5" r="0.5" fill="#F8F8F8"/>
<circle cx="237.5" cy="46.5" r="0.5" fill="#F8F8F8"/>
<circle cx="257.5" cy="46.5" r="0.5" fill="#F8F8F8"/>
<circle cx="277.5" cy="46.5" r="0.5" fill="#F8F8F8"/>
<circle cx="297.5" cy="46.5" r="0.5" fill="#F8F8F8"/>
<circle cx="317.5" cy="46.5" r="0.5" fill="#F8F8F8"/>
<circle opacity="0.3" cx="17.9654" cy="66.9654" r="1.4654" fill="#F8F8F8"/>
<circle opacity="0.4" cx="37.8466" cy="66.8466" r="1.3466" fill="#F8F8F8"/>
<circle opacity="0.4" cx="57.708" cy="66.708" r="1.208" fill="#F8F8F8"/>
<circle opacity="0.4" cx="77.5298" cy="66.5298" r="1.0298" fill="#F8F8F8"/>
<circle cx="97.8912" cy="66.8912" r="0.8912" fill="#F8F8F8"/>
<circle cx="117.733" cy="66.7328" r="0.7328" fill="#F8F8F8"/>
<circle cx="137.555" cy="66.5546" r="0.5546" fill="#F8F8F8"/>
<circle cx="157.5" cy="66.5" r="0.5" fill="#F8F8F8"/>
<circle cx="177.5" cy="66.5" r="0.5" fill="#F8F8F8"/>
<circle cx="197.5" cy="66.5" r="0.5" fill="#F8F8F8"/>
<circle cx="217.5" cy="66.5" r="0.5" fill="#F8F8F8"/>
<circle cx="237.5" cy="66.5" r="0.5" fill="#F8F8F8"/>
<circle cx="257.5" cy="66.5" r="0.5" fill="#F8F8F8"/>
<circle cx="277.5" cy="66.5" r="0.5" fill="#F8F8F8"/>
<circle cx="297.5" cy="66.5" r="0.5" fill="#F8F8F8"/>
<circle cx="317.5" cy="66.5" r="0.5" fill="#F8F8F8"/>
<circle opacity="0.3" cx="17.8664" cy="86.8664" r="1.3664" fill="#F8F8F8"/>
<circle opacity="0.4" cx="37.7476" cy="86.7476" r="1.2476" fill="#F8F8F8"/>
<circle opacity="0.4" cx="57.609" cy="86.609" r="1.109" fill="#F8F8F8"/>
<circle opacity="0.4" cx="77.9704" cy="86.9704" r="0.9704" fill="#F8F8F8"/>
<circle cx="97.8318" cy="86.8318" r="0.8318" fill="#F8F8F8"/>
<circle cx="117.673" cy="86.6734" r="0.6734" fill="#F8F8F8"/>
<circle cx="137.555" cy="86.5546" r="0.5546" fill="#F8F8F8"/>
<circle cx="157.5" cy="86.5" r="0.5" fill="#F8F8F8"/>
<circle cx="177.5" cy="86.5" r="0.5" fill="#F8F8F8"/>
<circle cx="197.5" cy="86.5" r="0.5" fill="#F8F8F8"/>
<circle cx="217.5" cy="86.5" r="0.5" fill="#F8F8F8"/>
<circle cx="237.5" cy="86.5" r="0.5" fill="#F8F8F8"/>
<circle cx="257.5" cy="86.5" r="0.5" fill="#F8F8F8"/>
<circle cx="277.5" cy="86.5" r="0.5" fill="#F8F8F8"/>
<circle cx="297.5" cy="86.5" r="0.5" fill="#F8F8F8"/>
<circle cx="317.5" cy="86.5" r="0.5" fill="#F8F8F8"/>
<circle cx="17.7674" cy="106.767" r="1.2674" fill="#F8F8F8"/>
<circle cx="37.6684" cy="106.668" r="1.1684" fill="#F8F8F8"/>
<circle cx="57.5496" cy="106.55" r="1.0496" fill="#F8F8F8"/>
<circle cx="77.911" cy="106.911" r="0.911" fill="#F8F8F8"/>
<circle cx="97.812" cy="106.812" r="0.812" fill="#F8F8F8"/>
<circle cx="117.673" cy="106.673" r="0.6734" fill="#F8F8F8"/>
<circle cx="137.574" cy="106.574" r="0.5744" fill="#F8F8F8"/>
<circle cx="157.515" cy="106.515" r="0.515" fill="#F8F8F8"/>
<circle cx="177.5" cy="106.5" r="0.5" fill="#F8F8F8"/>
<circle cx="197.5" cy="106.5" r="0.5" fill="#F8F8F8"/>
<circle cx="217.5" cy="106.5" r="0.5" fill="#F8F8F8"/>
<circle cx="237.5" cy="106.5" r="0.5" fill="#F8F8F8"/>
<circle cx="257.5" cy="106.5" r="0.5" fill="#F8F8F8"/>
<circle cx="277.5" cy="106.5" r="0.5" fill="#F8F8F8"/>
<circle cx="297.5" cy="106.5" r="0.5" fill="#F8F8F8"/>
<circle cx="317.5" cy="106.5" r="0.5" fill="#F8F8F8"/>
<circle cx="17.6882" cy="126.688" r="1.1882" fill="#F8F8F8"/>
<circle cx="37.5892" cy="126.589" r="1.0892" fill="#F8F8F8"/>
<circle cx="57.9902" cy="126.99" r="0.9902" fill="#F8F8F8"/>
<circle cx="277.5" cy="126.5" r="0.5" fill="#F8F8F8"/>
<circle cx="297.5" cy="126.5" r="0.5" fill="#F8F8F8"/>
<circle cx="317.5" cy="126.5" r="0.5" fill="#F8F8F8"/>
<circle cx="17.5892" cy="146.589" r="1.0892" fill="#F8F8F8"/>
<circle cx="37.5298" cy="146.53" r="1.0298" fill="#F8F8F8"/>
<circle cx="57.9506" cy="146.951" r="0.9506" fill="#F8F8F8"/>
<circle cx="277.555" cy="146.555" r="0.5546" fill="#F8F8F8"/>
<circle cx="297.5" cy="146.5" r="0.5" fill="#F8F8F8"/>
<circle cx="317.5" cy="146.5" r="0.5" fill="#F8F8F8"/>
<circle cx="17.5298" cy="166.53" r="1.0298" fill="#F8F8F8"/>
<circle cx="37.9902" cy="166.99" r="0.9902" fill="#F8F8F8"/>
<circle cx="57.9506" cy="166.951" r="0.9506" fill="#F8F8F8"/>
<circle cx="277.713" cy="166.713" r="0.713" fill="#F8F8F8"/>
<circle cx="297.634" cy="166.634" r="0.6338" fill="#F8F8F8"/>
<circle cx="317.574" cy="166.574" r="0.5744" fill="#F8F8F8"/>
<circle cx="17.9704" cy="186.97" r="0.9704" fill="#F8F8F8"/>
<circle cx="37.9506" cy="186.951" r="0.9506" fill="#F8F8F8"/>
<circle cx="57.9506" cy="186.951" r="0.9506" fill="#F8F8F8"/>
<circle cx="277.871" cy="186.871" r="0.8714" fill="#F8F8F8"/>
<circle cx="297.792" cy="186.792" r="0.7922" fill="#F8F8F8"/>
<circle cx="317.693" cy="186.693" r="0.6932" fill="#F8F8F8"/>
<circle cx="17.9506" cy="206.951" r="0.9506" fill="#F8F8F8"/>
<circle cx="37.9506" cy="206.951" r="0.9506" fill="#F8F8F8"/>
<circle cx="57.9704" cy="206.97" r="0.9704" fill="#F8F8F8"/>
<circle cx="277.51" cy="206.51" r="1.01" fill="#F8F8F8"/>
<circle cx="297.911" cy="206.911" r="0.911" fill="#F8F8F8"/>
<circle cx="317.812" cy="206.812" r="0.812" fill="#F8F8F8"/>
<circle cx="17.911" cy="226.911" r="0.911" fill="#F8F8F8"/>
<circle cx="37.9506" cy="226.951" r="0.9506" fill="#F8F8F8"/>
<circle cx="57.9902" cy="226.99" r="0.9902" fill="#F8F8F8"/>
<circle cx="277.589" cy="226.589" r="1.0892" fill="#F8F8F8"/>
<circle cx="297.51" cy="226.51" r="1.01" fill="#F8F8F8"/>
<circle cx="317.911" cy="226.911" r="0.911" fill="#F8F8F8"/>
<circle cx="17.911" cy="246.911" r="0.911" fill="#F8F8F8"/>
<circle opacity="0.5" cx="37.9506" cy="246.951" r="0.9506" fill="#F8F8F8"/>
<circle opacity="0.5" cx="57.5298" cy="246.53" r="1.0298" fill="#F8F8F8"/>
<circle cx="77.609" cy="246.609" r="1.109" fill="#F8F8F8"/>
<circle cx="97.6684" cy="246.668" r="1.1684" fill="#F8F8F8"/>
<circle cx="117.728" cy="246.728" r="1.2278" fill="#F8F8F8"/>
<circle cx="217.807" cy="246.807" r="1.307" fill="#F8F8F8"/>
<circle cx="237.787" cy="246.787" r="1.2872" fill="#F8F8F8"/>
<circle cx="257.748" cy="246.748" r="1.2476" fill="#F8F8F8"/>
<circle cx="277.708" cy="246.708" r="1.208" fill="#F8F8F8"/>
<circle cx="297.609" cy="246.609" r="1.109" fill="#F8F8F8"/>
<circle cx="317.51" cy="246.51" r="1.01" fill="#F8F8F8"/>
<circle cx="17.8912" cy="266.891" r="0.8912" fill="#F8F8F8"/>
<circle opacity="0.5" cx="37.9704" cy="266.97" r="0.9704" fill="#F8F8F8"/>
<circle opacity="0.5" cx="57.5496" cy="266.55" r="1.0496" fill="#F8F8F8"/>
<circle cx="77.6486" cy="266.649" r="1.1486" fill="#F8F8F8"/>
<circle cx="97.7278" cy="266.728" r="1.2278" fill="#F8F8F8"/>
<circle cx="117.807" cy="266.807" r="1.307" fill="#F8F8F8"/>
<circle cx="217.906" cy="266.906" r="1.406" fill="#F8F8F8"/>
<circle cx="237.886" cy="266.886" r="1.3862" fill="#F8F8F8"/>
<circle cx="257.847" cy="266.847" r="1.3466" fill="#F8F8F8"/>
<circle cx="277.787" cy="266.787" r="1.2872" fill="#F8F8F8"/>
<circle cx="297.708" cy="266.708" r="1.208" fill="#F8F8F8"/>
<circle cx="317.589" cy="266.589" r="1.0892" fill="#F8F8F8"/>
<circle opacity="0.5" cx="17.911" cy="286.911" r="0.911" fill="#F8F8F8"/>
<circle opacity="0.5" cx="37.9902" cy="286.99" r="0.9902" fill="#F8F8F8"/>
<circle opacity="0.5" cx="57.5892" cy="286.589" r="1.0892" fill="#F8F8F8"/>
<circle cx="77.6882" cy="286.688" r="1.1882" fill="#F8F8F8"/>
<circle cx="97.7674" cy="286.767" r="1.2674" fill="#F8F8F8"/>
<circle cx="117.847" cy="286.847" r="1.3466" fill="#F8F8F8"/>
<circle cx="217.965" cy="286.965" r="1.4654" fill="#F8F8F8"/>
<circle cx="237.946" cy="286.946" r="1.4456" fill="#F8F8F8"/>
<circle opacity="0.3" cx="257.906" cy="286.906" r="1.406" fill="#F8F8F8"/>
<circle opacity="0.3" cx="277.866" cy="286.866" r="1.3664" fill="#F8F8F8"/>
<circle opacity="0.3" cx="297.787" cy="286.787" r="1.2872" fill="#F8F8F8"/>
<circle cx="317.668" cy="286.668" r="1.1684" fill="#F8F8F8"/>
<circle opacity="0.5" cx="17.9308" cy="306.931" r="0.9308" fill="#F8F8F8"/>
<circle opacity="0.5" cx="37.51" cy="306.51" r="1.01" fill="#F8F8F8"/>
<circle opacity="0.5" cx="57.609" cy="306.609" r="1.109" fill="#F8F8F8"/>
<circle cx="77.708" cy="306.708" r="1.208" fill="#F8F8F8"/>
<circle cx="97.7872" cy="306.787" r="1.2872" fill="#F8F8F8"/>
<circle opacity="0.3" cx="117.866" cy="306.866" r="1.3664" fill="#F8F8F8"/>
<circle opacity="0.3" cx="137.926" cy="306.926" r="1.4258" fill="#F8F8F8"/>
<circle opacity="0.3" cx="157.965" cy="306.965" r="1.4654" fill="#F8F8F8"/>
<circle opacity="0.3" cx="177.985" cy="306.985" r="1.4852" fill="#F8F8F8"/>
<circle opacity="0.3" cx="197.505" cy="306.505" r="1.505" fill="#F8F8F8"/>
<circle opacity="0.3" cx="217.505" cy="306.505" r="1.505" fill="#F8F8F8"/>
<circle cx="237.985" cy="306.985" r="1.4852" fill="#F8F8F8"/>
<circle opacity="0.3" cx="257.965" cy="306.965" r="1.4654" fill="#F8F8F8"/>
<circle opacity="0.3" cx="277.926" cy="306.926" r="1.4258" fill="#F8F8F8"/>
<circle opacity="0.3" cx="297.847" cy="306.847" r="1.3466" fill="#F8F8F8"/>
<circle cx="317.748" cy="306.748" r="1.2476" fill="#F8F8F8"/>
<circle opacity="0.5" cx="17.9902" cy="326.99" r="0.9902" fill="#F8F8F8"/>
<circle opacity="0.5" cx="37.5298" cy="326.53" r="1.0298" fill="#F8F8F8"/>
<circle opacity="0.5" cx="57.6288" cy="326.629" r="1.1288" fill="#F8F8F8"/>
<circle cx="77.708" cy="326.708" r="1.208" fill="#F8F8F8"/>
<circle cx="97.7872" cy="326.787" r="1.2872" fill="#F8F8F8"/>
<circle opacity="0.3" cx="117.866" cy="326.866" r="1.3664" fill="#F8F8F8"/>
<circle opacity="0.3" cx="137.926" cy="326.926" r="1.4258" fill="#F8F8F8"/>
<circle opacity="0.3" cx="157.965" cy="326.965" r="1.4654" fill="#F8F8F8"/>
<circle opacity="0.3" cx="177.985" cy="326.985" r="1.4852" fill="#F8F8F8"/>
<circle opacity="0.3" cx="197.505" cy="326.505" r="1.505" fill="#F8F8F8"/>
<circle opacity="0.3" cx="217.505" cy="326.505" r="1.505" fill="#F8F8F8"/>
<circle cx="237.505" cy="326.505" r="1.505" fill="#F8F8F8"/>
<circle cx="257.505" cy="326.505" r="1.505" fill="#F8F8F8"/>
<circle cx="277.965" cy="326.965" r="1.4654" fill="#F8F8F8"/>
<circle cx="297.906" cy="326.906" r="1.406" fill="#F8F8F8"/>
<circle cx="317.807" cy="326.807" r="1.307" fill="#F8F8F8"/>
</g>
</g>
</g>
<path opacity="0.5" d="M96 211L96 277" stroke="url(#paint2_linear_3148_199673)" stroke-width="1.5" stroke-linecap="round"/>
<path opacity="0.5" d="M240 211L240 277" stroke="url(#paint3_linear_3148_199673)" stroke-width="1.5" stroke-linecap="round"/>
<path opacity="0.1" d="M174 85.0633L174 79C174 77.8954 173.105 77 172 77L164 77C162.895 77 162 77.8954 162 79L162 85.0633C162 85.6568 162.264 86.2197 162.72 86.5997L166.72 89.933C167.461 90.5511 168.539 90.5511 169.28 89.933L173.28 86.5997C173.736 86.2197 174 85.6568 174 85.0633Z" fill="#F8F8F8"/>
<path d="M168 91L168 277" stroke="url(#paint4_linear_3148_199673)" stroke-width="1.5" stroke-linecap="round" stroke-dasharray="4 12"/>
<g filter="url(#filter0_d_3148_199673)">
<rect x="68" y="105" width="40" height="8" rx="4" fill="#F8F8F8" fill-opacity="0.05" style="mix-blend-mode:luminosity" shape-rendering="crispEdges"/>
<rect x="68.5" y="105.5" width="39" height="7" rx="3.5" stroke="url(#paint5_linear_3148_199673)" stroke-opacity="0.25" shape-rendering="crispEdges"/>
</g>
<g filter="url(#filter1_d_3148_199673)">
<rect x="68" y="117" width="48" height="8" rx="4" fill="#F8F8F8" fill-opacity="0.05" style="mix-blend-mode:luminosity" shape-rendering="crispEdges"/>
<rect x="68.5" y="117.5" width="47" height="7" rx="3.5" stroke="url(#paint6_linear_3148_199673)" stroke-opacity="0.25" shape-rendering="crispEdges"/>
</g>
<g filter="url(#filter2_di_3148_199673)">
<g clip-path="url(#clip1_3148_199673)">
<foreignObject x="204" y="93" width="72" height="72"><div xmlns="http://www.w3.org/1999/xhtml" style="backdrop-filter:blur(6px);clip-path:url(#bgblur_2_3148_199673_clip_path);height:100%;width:100%"></div></foreignObject><g filter="url(#filter3_di_3148_199673)" data-figma-bg-blur-radius="12">
<rect x="216" y="105" width="48" height="20" rx="10" fill="#F8F8F8" fill-opacity="0.01" shape-rendering="crispEdges"/>
<rect x="216" y="105" width="48" height="20" rx="10" fill="#121212" fill-opacity="0.3" shape-rendering="crispEdges"/>
<rect x="216.75" y="105.75" width="46.5" height="18.5" rx="9.25" stroke="url(#paint7_linear_3148_199673)" stroke-opacity="0.25" stroke-width="1.5" shape-rendering="crispEdges"/>
<rect opacity="0.5" x="228" y="113" width="24" height="4" rx="2" fill="#F8F8F8" fill-opacity="0.95"/>
</g>
</g>
<rect x="212.75" y="101.75" width="54.5" height="26.5" rx="13.25" stroke="#F8F8F8" stroke-opacity="0.4" stroke-width="1.5" shape-rendering="crispEdges"/>
</g>
<g filter="url(#filter4_d_3148_199673)">
<g clip-path="url(#clip3_3148_199673)">
<g filter="url(#filter5_i_3148_199673)">
<g clip-path="url(#clip4_3148_199673)">
<rect x="268" y="141" width="70" height="200" rx="16" transform="rotate(90 268 141)" fill="#282828" fill-opacity="0.7" style="mix-blend-mode:luminosity"/>
<path d="M221.137 177.816L222.685 177.468C222.721 178.188 223.273 178.776 224.101 178.776C224.845 178.776 225.445 178.284 225.445 177.504C225.445 176.616 224.785 176.196 224.065 176.196C223.537 176.196 223.117 176.436 222.865 176.724C222.709 176.664 221.521 176.256 221.353 176.208L222.277 172.212H226.669V173.64H223.405L223.021 175.356C223.357 175.044 223.909 174.876 224.425 174.876C225.985 174.876 227.089 175.812 227.089 177.48C227.089 178.932 225.973 180.192 224.101 180.192C222.409 180.192 221.233 179.04 221.137 177.816ZM229.712 176.112C229.712 176.928 229.832 177.624 230.132 178.092C230.372 178.476 230.744 178.728 231.308 178.728C231.884 178.728 232.232 178.476 232.472 178.092C232.784 177.624 232.904 176.928 232.904 176.112C232.904 175.296 232.784 174.6 232.472 174.132C232.232 173.748 231.884 173.496 231.308 173.496C230.744 173.496 230.372 173.748 230.132 174.132C229.832 174.6 229.712 175.296 229.712 176.112ZM228.056 176.112C228.056 175.116 228.212 174.144 228.74 173.34C229.256 172.572 230.096 172.032 231.308 172.032C232.52 172.032 233.36 172.572 233.864 173.34C234.392 174.144 234.56 175.116 234.56 176.112C234.56 177.108 234.392 178.08 233.864 178.884C233.36 179.652 232.52 180.192 231.308 180.192C230.096 180.192 229.256 179.652 228.74 178.884C228.212 178.08 228.056 177.108 228.056 176.112ZM236.622 174.048C236.622 174.552 236.97 174.888 237.414 174.888C237.87 174.888 238.206 174.54 238.206 174.048C238.206 173.556 237.87 173.22 237.414 173.22C236.97 173.22 236.622 173.556 236.622 174.048ZM235.422 174.048C235.422 172.944 236.334 172.08 237.414 172.08C238.494 172.08 239.418 172.944 239.418 174.048C239.418 175.164 238.494 176.004 237.414 176.004C236.322 176.004 235.422 175.14 235.422 174.048ZM241.866 178.176C241.866 178.68 242.214 179.016 242.658 179.016C243.114 179.016 243.45 178.668 243.45 178.176C243.45 177.684 243.114 177.348 242.658 177.348C242.214 177.348 241.866 177.684 241.866 178.176ZM240.666 178.176C240.666 177.072 241.578 176.208 242.658 176.208C243.738 176.208 244.662 177.072 244.662 178.176C244.662 179.292 243.738 180.132 242.658 180.132C241.566 180.132 240.666 179.268 240.666 178.176ZM237.99 180H236.598L242.094 172.212H243.486L237.99 180Z" fill="#F8F8F8" fill-opacity="0.7"/>
</g>
<rect x="267.25" y="141.75" width="68.5" height="198.5" rx="15.25" transform="rotate(90 267.25 141.75)" stroke="url(#paint8_linear_3148_199673)" stroke-opacity="0.4" stroke-width="1.5"/>
</g>
<g filter="url(#filter6_di_3148_199673)">
<rect width="70" height="100" transform="translate(168 141) rotate(90)" fill="#F8F8F8" fill-opacity="0.025" style="mix-blend-mode:luminosity"/>
<circle opacity="0.5" cx="125.228" cy="181.65" r="0.302844" transform="rotate(126.513 125.228 181.65)" fill="url(#paint9_linear_3148_199673)"/>
<circle opacity="0.5" cx="108.269" cy="173.776" r="0.302844" transform="rotate(126.513 108.269 173.776)" fill="url(#paint10_linear_3148_199673)"/>
<circle opacity="0.5" cx="155.513" cy="190.129" r="0.302844" transform="rotate(126.513 155.513 190.129)" fill="url(#paint11_linear_3148_199673)"/>
<circle opacity="0.5" cx="132.497" cy="170.142" r="0.302844" transform="rotate(126.513 132.497 170.142)" fill="url(#paint12_linear_3148_199673)"/>
<circle opacity="0.5" cx="103.424" cy="182.861" r="0.302844" transform="rotate(126.513 103.424 182.861)" fill="url(#paint13_linear_3148_199673)"/>
<circle opacity="0.5" cx="145.64" cy="189.705" r="1.81706" transform="rotate(90 145.64 189.705)" fill="url(#paint14_linear_3148_199673)"/>
<circle opacity="0.5" cx="114.447" cy="180.923" r="1.51422" transform="rotate(90 114.447 180.923)" fill="url(#paint15_linear_3148_199673)"/>
<circle cx="151.696" cy="166.083" r="0.605687" transform="rotate(90 151.696 166.083)" fill="url(#paint16_linear_3148_199673)"/>
<circle opacity="0.5" cx="144.785" cy="180.263" r="0.605687" transform="rotate(40.5342 144.785 180.263)" fill="url(#paint17_linear_3148_199673)"/>
<circle opacity="0.5" cx="119.959" cy="174.804" r="0.605687" transform="rotate(126.513 119.959 174.804)" fill="url(#paint18_linear_3148_199673)"/>
<circle opacity="0.5" cx="142.611" cy="167.295" r="0.605687" transform="rotate(90 142.611 167.295)" fill="url(#paint19_linear_3148_199673)"/>
<circle opacity="0.5" cx="135.343" cy="187.282" r="0.605687" transform="rotate(90 135.343 187.282)" fill="url(#paint20_linear_3148_199673)"/>
<circle cx="155.706" cy="178.309" r="1.65266" transform="rotate(145.989 155.706 178.309)" fill="white" fill-opacity="0.15"/>
<circle cx="129.286" cy="175.774" r="1.21137" transform="rotate(90 129.286 175.774)" fill="url(#paint21_linear_3148_199673)"/>
</g>
</g>
<rect x="267.25" y="141.75" width="68.5" height="198.5" rx="15.25" transform="rotate(90 267.25 141.75)" stroke="#F8F8F8" stroke-opacity="0.1" stroke-width="1.5"/>
</g>
<g filter="url(#filter7_d_3148_199673)">
<path d="M88.8 203H107.2C111.68 203 113.921 203 115.632 202.128C117.137 201.361 118.361 200.137 119.128 198.632C120 196.921 120 194.68 120 190.2V168.566C120 166.337 120 165.223 119.72 164.192C119.471 163.278 119.063 162.416 118.513 161.646C117.893 160.776 117.03 160.07 115.305 158.659L107.036 151.893C105.726 150.821 105.071 150.285 104.339 149.904C103.689 149.566 102.996 149.318 102.278 149.169C101.47 149 100.624 149 98.9309 149H88.8C84.3196 149 82.0794 149 80.3681 149.872C78.8628 150.639 77.6389 151.863 76.8719 153.368C76 155.079 76 157.32 76 161.8V190.2C76 194.68 76 196.921 76.8719 198.632C77.6389 200.137 78.8628 201.361 80.3681 202.128C82.0794 203 84.3196 203 88.8 203Z" fill="#F8F8F8" fill-opacity="0.1" style="mix-blend-mode:luminosity" shape-rendering="crispEdges"/>
<path d="M88.7998 149.75H98.9307C100.654 149.75 101.41 149.754 102.125 149.903C102.775 150.039 103.403 150.263 103.992 150.569C104.64 150.907 105.228 151.382 106.562 152.474L114.83 159.239C116.587 160.676 117.354 161.312 117.902 162.081C118.4 162.779 118.771 163.561 118.996 164.389C119.244 165.3 119.25 166.296 119.25 168.565V190.2C119.25 192.453 119.249 194.097 119.144 195.394C119.038 196.681 118.833 197.559 118.46 198.291C117.765 199.655 116.655 200.765 115.291 201.46C114.559 201.833 113.681 202.038 112.394 202.144C111.097 202.249 109.453 202.25 107.2 202.25H88.7998C86.5473 202.25 84.9028 202.249 83.6064 202.144C82.3192 202.038 81.4412 201.833 80.709 201.46C79.3448 200.765 78.2351 199.655 77.54 198.291C77.1671 197.559 76.9616 196.681 76.8564 195.394C76.7505 194.097 76.75 192.453 76.75 190.2V161.8C76.75 159.547 76.7505 157.903 76.8564 156.606C76.9616 155.319 77.1671 154.441 77.54 153.709C78.2351 152.345 79.3448 151.235 80.709 150.54C81.4412 150.167 82.3192 149.962 83.6064 149.856C84.9028 149.751 86.5473 149.75 88.7998 149.75Z" stroke="url(#paint22_linear_3148_199673)" stroke-opacity="0.25" stroke-width="1.5" shape-rendering="crispEdges"/>
</g>
<path d="M98 170.5V178M98 170.5L101 173.5M98 170.5L95 173.5M103.5 176.5V179.5C103.5 180.605 102.605 181.5 101.5 181.5H94.5C93.3954 181.5 92.5 180.605 92.5 179.5V176.5" stroke="#F8F8F8" stroke-opacity="0.95" stroke-width="1.5" stroke-linecap="round" stroke-linejoin="round"/>
<defs>
<filter id="filter0_d_3148_199673" x="44" y="105" width="88" height="56" filterUnits="userSpaceOnUse" color-interpolation-filters="sRGB">
<feFlood flood-opacity="0" result="BackgroundImageFix"/>
<feColorMatrix in="SourceAlpha" type="matrix" values="0 0 0 0 0 0 0 0 0 0 0 0 0 0 0 0 0 0 127 0" result="hardAlpha"/>
<feOffset dy="24"/>
<feGaussianBlur stdDeviation="12"/>
<feComposite in2="hardAlpha" operator="out"/>
<feColorMatrix type="matrix" values="0 0 0 0 0 0 0 0 0 0 0 0 0 0 0 0 0 0 0.3 0"/>
<feBlend mode="multiply" in2="BackgroundImageFix" result="effect1_dropShadow_3148_199673"/>
<feBlend mode="normal" in="SourceGraphic" in2="effect1_dropShadow_3148_199673" result="shape"/>
</filter>
<filter id="filter1_d_3148_199673" x="44" y="117" width="96" height="56" filterUnits="userSpaceOnUse" color-interpolation-filters="sRGB">
<feFlood flood-opacity="0" result="BackgroundImageFix"/>
<feColorMatrix in="SourceAlpha" type="matrix" values="0 0 0 0 0 0 0 0 0 0 0 0 0 0 0 0 0 0 127 0" result="hardAlpha"/>
<feOffset dy="24"/>
<feGaussianBlur stdDeviation="12"/>
<feComposite in2="hardAlpha" operator="out"/>
<feColorMatrix type="matrix" values="0 0 0 0 0 0 0 0 0 0 0 0 0 0 0 0 0 0 0.3 0"/>
<feBlend mode="multiply" in2="BackgroundImageFix" result="effect1_dropShadow_3148_199673"/>
<feBlend mode="normal" in="SourceGraphic" in2="effect1_dropShadow_3148_199673" result="shape"/>
</filter>
<filter id="filter2_di_3148_199673" x="204" y="101" width="72" height="68" filterUnits="userSpaceOnUse" color-interpolation-filters="sRGB">
<feFlood flood-opacity="0" result="BackgroundImageFix"/>
<feColorMatrix in="SourceAlpha" type="matrix" values="0 0 0 0 0 0 0 0 0 0 0 0 0 0 0 0 0 0 127 0" result="hardAlpha"/>
<feMorphology radius="16" operator="erode" in="SourceAlpha" result="effect1_dropShadow_3148_199673"/>
<feOffset dy="32"/>
<feGaussianBlur stdDeviation="12"/>
<feComposite in2="hardAlpha" operator="out"/>
<feColorMatrix type="matrix" values="0 0 0 0 0 0 0 0 0 0 0 0 0 0 0 0 0 0 0.4 0"/>
<feBlend mode="multiply" in2="BackgroundImageFix" result="effect1_dropShadow_3148_199673"/>
<feBlend mode="normal" in="SourceGraphic" in2="effect1_dropShadow_3148_199673" result="shape"/>
<feColorMatrix in="SourceAlpha" type="matrix" values="0 0 0 0 0 0 0 0 0 0 0 0 0 0 0 0 0 0 127 0" result="hardAlpha"/>
<feOffset/>
<feGaussianBlur stdDeviation="4"/>
<feComposite in2="hardAlpha" operator="arithmetic" k2="-1" k3="1"/>
<feColorMatrix type="matrix" values="0 0 0 0 0.972549 0 0 0 0 0.972549 0 0 0 0 0.972549 0 0 0 0.25 0"/>
<feBlend mode="normal" in2="shape" result="effect2_innerShadow_3148_199673"/>
</filter>
<filter id="filter3_di_3148_199673" x="204" y="93" width="72" height="72" filterUnits="userSpaceOnUse" color-interpolation-filters="sRGB">
<feFlood flood-opacity="0" result="BackgroundImageFix"/>
<feColorMatrix in="SourceAlpha" type="matrix" values="0 0 0 0 0 0 0 0 0 0 0 0 0 0 0 0 0 0 127 0" result="hardAlpha"/>
<feMorphology radius="16" operator="erode" in="SourceAlpha" result="effect1_dropShadow_3148_199673"/>
<feOffset dy="32"/>
<feGaussianBlur stdDeviation="12"/>
<feComposite in2="hardAlpha" operator="out"/>
<feColorMatrix type="matrix" values="0 0 0 0 0 0 0 0 0 0 0 0 0 0 0 0 0 0 0.4 0"/>
<feBlend mode="multiply" in2="BackgroundImageFix" result="effect1_dropShadow_3148_199673"/>
<feBlend mode="normal" in="SourceGraphic" in2="effect1_dropShadow_3148_199673" result="shape"/>
<feColorMatrix in="SourceAlpha" type="matrix" values="0 0 0 0 0 0 0 0 0 0 0 0 0 0 0 0 0 0 127 0" result="hardAlpha"/>
<feOffset/>
<feGaussianBlur stdDeviation="4"/>
<feComposite in2="hardAlpha" operator="arithmetic" k2="-1" k3="1"/>
<feColorMatrix type="matrix" values="0 0 0 0 0.972549 0 0 0 0 0.972549 0 0 0 0 0.972549 0 0 0 0.25 0"/>
<feBlend mode="normal" in2="shape" result="effect2_innerShadow_3148_199673"/>
</filter>
<clipPath id="bgblur_2_3148_199673_clip_path" transform="translate(-204 -93)"><rect x="216" y="105" width="48" height="20" rx="10"/>
</clipPath><filter id="filter4_d_3148_199673" x="60" y="141" width="216" height="110" filterUnits="userSpaceOnUse" color-interpolation-filters="sRGB">
<feFlood flood-opacity="0" result="BackgroundImageFix"/>
<feColorMatrix in="SourceAlpha" type="matrix" values="0 0 0 0 0 0 0 0 0 0 0 0 0 0 0 0 0 0 127 0" result="hardAlpha"/>
<feMorphology radius="16" operator="erode" in="SourceAlpha" result="effect1_dropShadow_3148_199673"/>
<feOffset dy="32"/>
<feGaussianBlur stdDeviation="12"/>
<feComposite in2="hardAlpha" operator="out"/>
<feColorMatrix type="matrix" values="0 0 0 0 0 0 0 0 0 0 0 0 0 0 0 0 0 0 0.15 0"/>
<feBlend mode="multiply" in2="BackgroundImageFix" result="effect1_dropShadow_3148_199673"/>
<feBlend mode="normal" in="SourceGraphic" in2="effect1_dropShadow_3148_199673" result="shape"/>
</filter>
<filter id="filter5_i_3148_199673" x="68" y="141" width="200" height="70" filterUnits="userSpaceOnUse" color-interpolation-filters="sRGB">
<feFlood flood-opacity="0" result="BackgroundImageFix"/>
<feBlend mode="normal" in="SourceGraphic" in2="BackgroundImageFix" result="shape"/>
<feColorMatrix in="SourceAlpha" type="matrix" values="0 0 0 0 0 0 0 0 0 0 0 0 0 0 0 0 0 0 127 0" result="hardAlpha"/>
<feOffset/>
<feGaussianBlur stdDeviation="4"/>
<feComposite in2="hardAlpha" operator="arithmetic" k2="-1" k3="1"/>
<feColorMatrix type="matrix" values="0 0 0 0 0.972549 0 0 0 0 0.972549 0 0 0 0 0.972549 0 0 0 0.25 0"/>
<feBlend mode="normal" in2="shape" result="effect1_innerShadow_3148_199673"/>
</filter>
<filter id="filter6_di_3148_199673" x="56" y="129" width="124" height="122" filterUnits="userSpaceOnUse" color-interpolation-filters="sRGB">
<feFlood flood-opacity="0" result="BackgroundImageFix"/>
<feColorMatrix in="SourceAlpha" type="matrix" values="0 0 0 0 0 0 0 0 0 0 0 0 0 0 0 0 0 0 127 0" result="hardAlpha"/>
<feMorphology radius="16" operator="erode" in="SourceAlpha" result="effect1_dropShadow_3148_199673"/>
<feOffset dy="32"/>
<feGaussianBlur stdDeviation="12"/>
<feComposite in2="hardAlpha" operator="out"/>
<feColorMatrix type="matrix" values="0 0 0 0 0 0 0 0 0 0 0 0 0 0 0 0 0 0 0.4 0"/>
<feBlend mode="multiply" in2="BackgroundImageFix" result="effect1_dropShadow_3148_199673"/>
<feBlend mode="normal" in="SourceGraphic" in2="effect1_dropShadow_3148_199673" result="shape"/>
<feColorMatrix in="SourceAlpha" type="matrix" values="0 0 0 0 0 0 0 0 0 0 0 0 0 0 0 0 0 0 127 0" result="hardAlpha"/>
<feOffset/>
<feGaussianBlur stdDeviation="4"/>
<feComposite in2="hardAlpha" operator="arithmetic" k2="-1" k3="1"/>
<feColorMatrix type="matrix" values="0 0 0 0 0.972549 0 0 0 0 0.972549 0 0 0 0 0.972549 0 0 0 0.25 0"/>
<feBlend mode="normal" in2="shape" result="effect2_innerShadow_3148_199673"/>
</filter>
<filter id="filter7_d_3148_199673" x="52" y="149" width="92" height="102" filterUnits="userSpaceOnUse" color-interpolation-filters="sRGB">
<feFlood flood-opacity="0" result="BackgroundImageFix"/>
<feColorMatrix in="SourceAlpha" type="matrix" values="0 0 0 0 0 0 0 0 0 0 0 0 0 0 0 0 0 0 127 0" result="hardAlpha"/>
<feOffset dy="24"/>
<feGaussianBlur stdDeviation="12"/>
<feComposite in2="hardAlpha" operator="out"/>
<feColorMatrix type="matrix" values="0 0 0 0 0 0 0 0 0 0 0 0 0 0 0 0 0 0 0.3 0"/>
<feBlend mode="multiply" in2="BackgroundImageFix" result="effect1_dropShadow_3148_199673"/>
<feBlend mode="normal" in="SourceGraphic" in2="effect1_dropShadow_3148_199673" result="shape"/>
</filter>
<radialGradient id="paint0_radial_3148_199673" cx="0" cy="0" r="1" gradientUnits="userSpaceOnUse" gradientTransform="translate(168 177) rotate(90) scale(188)">
<stop stop-color="#D9D9D9"/>
<stop offset="1" stop-color="#737373" stop-opacity="0"/>
</radialGradient>
<radialGradient id="paint1_radial_3148_199673" cx="0" cy="0" r="1" gradientUnits="userSpaceOnUse" gradientTransform="translate(168 177) rotate(90) scale(184)">
<stop offset="0.433142" stop-color="#737373" stop-opacity="0"/>
<stop offset="1" stop-color="#D9D9D9"/>
</radialGradient>
<linearGradient id="paint2_linear_3148_199673" x1="95.5" y1="211" x2="95.5" y2="277" gradientUnits="userSpaceOnUse">
<stop stop-color="#F8F8F8" stop-opacity="0"/>
<stop offset="0.5" stop-color="#F8F8F8" stop-opacity="0.2"/>
<stop offset="1" stop-color="#F8F8F8" stop-opacity="0"/>
</linearGradient>
<linearGradient id="paint3_linear_3148_199673" x1="239.5" y1="211" x2="239.5" y2="277" gradientUnits="userSpaceOnUse">
<stop stop-color="#F8F8F8" stop-opacity="0"/>
<stop offset="0.5" stop-color="#F8F8F8" stop-opacity="0.2"/>
<stop offset="1" stop-color="#F8F8F8" stop-opacity="0"/>
</linearGradient>
<linearGradient id="paint4_linear_3148_199673" x1="167.5" y1="91" x2="167.5" y2="277" gradientUnits="userSpaceOnUse">
<stop stop-color="#F8F8F8" stop-opacity="0"/>
<stop offset="0.5" stop-color="#F8F8F8" stop-opacity="0.2"/>
<stop offset="1" stop-color="#F8F8F8" stop-opacity="0"/>
</linearGradient>
<linearGradient id="paint5_linear_3148_199673" x1="88" y1="105" x2="88.8002" y2="115.1" gradientUnits="userSpaceOnUse">
<stop stop-color="white" stop-opacity="0.4"/>
<stop offset="0.4" stop-color="white" stop-opacity="0.01"/>
<stop offset="0.6" stop-color="white" stop-opacity="0.01"/>
<stop offset="1" stop-color="white" stop-opacity="0.1"/>
</linearGradient>
<linearGradient id="paint6_linear_3148_199673" x1="92" y1="117" x2="92.6681" y2="127.12" gradientUnits="userSpaceOnUse">
<stop stop-color="white" stop-opacity="0.4"/>
<stop offset="0.4" stop-color="white" stop-opacity="0.01"/>
<stop offset="0.6" stop-color="white" stop-opacity="0.01"/>
<stop offset="1" stop-color="white" stop-opacity="0.1"/>
</linearGradient>
<linearGradient id="paint7_linear_3148_199673" x1="240" y1="105" x2="244.083" y2="129.735" gradientUnits="userSpaceOnUse">
<stop stop-color="white" stop-opacity="0.4"/>
<stop offset="0.4" stop-color="white" stop-opacity="0.01"/>
<stop offset="0.6" stop-color="white" stop-opacity="0.01"/>
<stop offset="1" stop-color="white" stop-opacity="0.1"/>
</linearGradient>
<linearGradient id="paint8_linear_3148_199673" x1="303" y1="141" x2="303" y2="341" gradientUnits="userSpaceOnUse">
<stop stop-color="#F8F8F8" stop-opacity="0"/>
<stop offset="1" stop-color="#F8F8F8"/>
</linearGradient>
<linearGradient id="paint9_linear_3148_199673" x1="125.43" y1="181.145" x2="125.077" y2="181.902" gradientUnits="userSpaceOnUse">
<stop offset="0.173306" stop-color="white" stop-opacity="0"/>
<stop offset="1" stop-color="white" stop-opacity="0.3"/>
</linearGradient>
<linearGradient id="paint10_linear_3148_199673" x1="108.471" y1="173.271" x2="108.118" y2="174.028" gradientUnits="userSpaceOnUse">
<stop offset="0.173306" stop-color="white" stop-opacity="0"/>
<stop offset="1" stop-color="white" stop-opacity="0.3"/>
</linearGradient>
<linearGradient id="paint11_linear_3148_199673" x1="155.715" y1="189.624" x2="155.361" y2="190.382" gradientUnits="userSpaceOnUse">
<stop offset="0.173306" stop-color="white" stop-opacity="0"/>
<stop offset="1" stop-color="white" stop-opacity="0.3"/>
</linearGradient>
<linearGradient id="paint12_linear_3148_199673" x1="132.699" y1="169.637" x2="132.345" y2="170.394" gradientUnits="userSpaceOnUse">
<stop offset="0.173306" stop-color="white" stop-opacity="0"/>
<stop offset="1" stop-color="white" stop-opacity="0.3"/>
</linearGradient>
<linearGradient id="paint13_linear_3148_199673" x1="103.626" y1="182.356" x2="103.272" y2="183.113" gradientUnits="userSpaceOnUse">
<stop offset="0.173306" stop-color="white" stop-opacity="0"/>
<stop offset="1" stop-color="white" stop-opacity="0.3"/>
</linearGradient>
<linearGradient id="paint14_linear_3148_199673" x1="146.851" y1="187.888" x2="143.823" y2="192.128" gradientUnits="userSpaceOnUse">
<stop stop-color="white" stop-opacity="0.3"/>
<stop offset="0.826694" stop-color="white" stop-opacity="0"/>
</linearGradient>
<linearGradient id="paint15_linear_3148_199673" x1="115.456" y1="178.399" x2="113.69" y2="182.185" gradientUnits="userSpaceOnUse">
<stop stop-color="white" stop-opacity="0.3"/>
<stop offset="0.826694" stop-color="white" stop-opacity="0"/>
</linearGradient>
<linearGradient id="paint16_linear_3148_199673" x1="152.1" y1="165.074" x2="151.394" y2="166.588" gradientUnits="userSpaceOnUse">
<stop offset="0.173306" stop-color="white" stop-opacity="0"/>
<stop offset="1" stop-color="white" stop-opacity="0.3"/>
</linearGradient>
<linearGradient id="paint17_linear_3148_199673" x1="145.189" y1="179.253" x2="144.483" y2="180.767" gradientUnits="userSpaceOnUse">
<stop offset="0.173306" stop-color="white" stop-opacity="0"/>
<stop offset="1" stop-color="white" stop-opacity="0.3"/>
</linearGradient>
<linearGradient id="paint18_linear_3148_199673" x1="120.363" y1="173.795" x2="119.656" y2="175.309" gradientUnits="userSpaceOnUse">
<stop offset="0.173306" stop-color="white" stop-opacity="0"/>
<stop offset="1" stop-color="white" stop-opacity="0.3"/>
</linearGradient>
<linearGradient id="paint19_linear_3148_199673" x1="143.015" y1="166.285" x2="142.308" y2="167.8" gradientUnits="userSpaceOnUse">
<stop offset="0.173306" stop-color="white" stop-opacity="0"/>
<stop offset="1" stop-color="white" stop-opacity="0.3"/>
</linearGradient>
<linearGradient id="paint20_linear_3148_199673" x1="135.747" y1="186.273" x2="135.04" y2="187.787" gradientUnits="userSpaceOnUse">
<stop offset="0.173306" stop-color="white" stop-opacity="0"/>
<stop offset="1" stop-color="white" stop-opacity="0.3"/>
</linearGradient>
<linearGradient id="paint21_linear_3148_199673" x1="130.094" y1="173.755" x2="128.68" y2="176.784" gradientUnits="userSpaceOnUse">
<stop stop-color="white" stop-opacity="0.3"/>
<stop offset="0.826694" stop-color="white" stop-opacity="0"/>
</linearGradient>
<linearGradient id="paint22_linear_3148_199673" x1="98" y1="149" x2="124.978" y2="204.489" gradientUnits="userSpaceOnUse">
<stop stop-color="white" stop-opacity="0.4"/>
<stop offset="0.4" stop-color="white" stop-opacity="0.01"/>
<stop offset="0.6" stop-color="white" stop-opacity="0.01"/>
<stop offset="1" stop-color="white" stop-opacity="0.1"/>
</linearGradient>
<clipPath id="clip0_3148_199673">
<rect width="336" height="336" fill="white" transform="translate(0 9)"/>
</clipPath>
<clipPath id="clip1_3148_199673">
<rect x="212" y="101" width="56" height="28" rx="14" fill="white"/>
</clipPath>
<clipPath id="clip3_3148_199673">
<rect x="268" y="141" width="70" height="200" rx="16" transform="rotate(90 268 141)" fill="white"/>
</clipPath>
<clipPath id="clip4_3148_199673">
<rect x="268" y="141" width="70" height="200" rx="16" transform="rotate(90 268 141)" fill="white"/>
</clipPath>
</defs>
</svg>
