<svg width="418" height="442" viewBox="0 0 418 442" fill="none" xmlns="http://www.w3.org/2000/svg">
<g opacity="0.01" filter="url(#filter0_di_3022_51061)">
<path d="M64.75 133.721V200.75V267.779C64.75 270.962 66.0143 274.014 68.2647 276.265L133.235 341.235C135.486 343.486 138.538 344.75 141.721 344.75H208.75H275.779C278.962 344.75 282.014 343.486 284.265 341.235L349.235 276.265C351.486 274.014 352.75 270.962 352.75 267.779V200.75V133.721C352.75 130.538 351.486 127.486 349.235 125.235L284.265 60.2647C282.014 58.0143 278.962 56.75 275.779 56.75H208.75H141.721C138.538 56.75 135.486 58.0143 133.235 60.2647L68.2647 125.235C66.0143 127.486 64.75 130.538 64.75 133.721Z" fill="#282828"/>
<path d="M64.75 133.721V200.75V267.779C64.75 270.962 66.0143 274.014 68.2647 276.265L133.235 341.235C135.486 343.486 138.538 344.75 141.721 344.75H208.75H275.779C278.962 344.75 282.014 343.486 284.265 341.235L349.235 276.265C351.486 274.014 352.75 270.962 352.75 267.779V200.75V133.721C352.75 130.538 351.486 127.486 349.235 125.235L284.265 60.2647C282.014 58.0143 278.962 56.75 275.779 56.75H208.75H141.721C138.538 56.75 135.486 58.0143 133.235 60.2647L68.2647 125.235C66.0143 127.486 64.75 130.538 64.75 133.721Z" stroke="#F8F8F8" stroke-width="1.5"/>
</g>
<g opacity="0.01" filter="url(#filter1_di_3022_51061)">
<path d="M8.75 105.721V200.75V295.779C8.75 298.962 10.0143 302.014 12.2647 304.265L105.235 397.235C107.486 399.486 110.538 400.75 113.721 400.75H208.75H303.779C306.962 400.75 310.014 399.486 312.265 397.235L405.235 304.265C407.486 302.014 408.75 298.962 408.75 295.779V200.75V105.721C408.75 102.538 407.486 99.4857 405.235 97.2353L312.265 4.26472C310.014 2.01428 306.962 0.75 303.779 0.75H208.75H113.721C110.538 0.75 107.486 2.01428 105.235 4.26472L12.2647 97.2353C10.0143 99.4857 8.75 102.538 8.75 105.721Z" fill="#282828"/>
<path d="M8.75 105.721V200.75V295.779C8.75 298.962 10.0143 302.014 12.2647 304.265L105.235 397.235C107.486 399.486 110.538 400.75 113.721 400.75H208.75H303.779C306.962 400.75 310.014 399.486 312.265 397.235L405.235 304.265C407.486 302.014 408.75 298.962 408.75 295.779V200.75V105.721C408.75 102.538 407.486 99.4857 405.235 97.2353L312.265 4.26472C310.014 2.01428 306.962 0.75 303.779 0.75H208.75H113.721C110.538 0.75 107.486 2.01428 105.235 4.26472L12.2647 97.2353C10.0143 99.4857 8.75 102.538 8.75 105.721Z" stroke="#F8F8F8" stroke-width="1.5"/>
</g>
<path opacity="0.1" d="M192.75 56.75H224.75" stroke="#F8F8F8" stroke-width="1.5"/>
<path opacity="0.1" d="M64.75 206.75L64.75 194.75" stroke="#F8F8F8" stroke-width="1.5"/>
<path opacity="0.1" d="M352.75 206.75L352.75 194.75" stroke="#F8F8F8" stroke-width="1.5"/>
<path opacity="0.1" d="M192.75 344.75H224.75" stroke="#F8F8F8" stroke-width="1.5"/>
<path opacity="0.1" d="M24.75 200.75L64.75 200.75" stroke="#F8F8F8" stroke-width="1.5"/>
<path opacity="0.1" d="M352.75 200.75L392.75 200.75" stroke="#F8F8F8" stroke-width="1.5"/>
<g opacity="0.05" filter="url(#filter2_di_3022_51061)">
<path d="M124.75 163.721V200.75V237.779C124.75 240.962 126.014 244.014 128.265 246.265L163.235 281.235C165.486 283.486 168.538 284.75 171.721 284.75H208.75H245.779C248.962 284.75 252.014 283.486 254.265 281.235L289.235 246.265C291.486 244.014 292.75 240.962 292.75 237.779V200.75V163.721C292.75 160.538 291.486 157.486 289.235 155.235L254.265 120.265C252.014 118.014 248.962 116.75 245.779 116.75H208.75H171.721C168.538 116.75 165.486 118.014 163.235 120.265L128.265 155.235C126.014 157.486 124.75 160.538 124.75 163.721Z" fill="#282828"/>
<path d="M124.75 163.721V200.75V237.779C124.75 240.962 126.014 244.014 128.265 246.265L163.235 281.235C165.486 283.486 168.538 284.75 171.721 284.75H208.75H245.779C248.962 284.75 252.014 283.486 254.265 281.235L289.235 246.265C291.486 244.014 292.75 240.962 292.75 237.779V200.75V163.721C292.75 160.538 291.486 157.486 289.235 155.235L254.265 120.265C252.014 118.014 248.962 116.75 245.779 116.75H208.75H171.721C168.538 116.75 165.486 118.014 163.235 120.265L128.265 155.235C126.014 157.486 124.75 160.538 124.75 163.721Z" stroke="#F8F8F8" stroke-width="1.5"/>
</g>
<mask id="mask0_3022_51061" style="mask-type:alpha" maskUnits="userSpaceOnUse" x="84" y="76" width="249" height="249">
<circle cx="208.75" cy="200.75" r="124" fill="url(#paint0_radial_3022_51061)"/>
</mask>
<g mask="url(#mask0_3022_51061)">
<foreignObject x="116" y="116" width="185.5" height="209.5"><div xmlns="http://www.w3.org/1999/xhtml" style="backdrop-filter:blur(16px);clip-path:url(#bgblur_0_3022_51061_clip_path);height:100%;width:100%"></div></foreignObject><g opacity="0.1" data-figma-bg-blur-radius="32">
<rect x="252.75" y="76.75" width="80" height="80" rx="16" stroke="#F8F8F8" style="mix-blend-mode:luminosity" stroke-width="1.5"/>
</g>
<foreignObject x="116" y="116" width="185.5" height="209.5"><div xmlns="http://www.w3.org/1999/xhtml" style="backdrop-filter:blur(16px);clip-path:url(#bgblur_1_3022_51061_clip_path);height:100%;width:100%"></div></foreignObject><g opacity="0.1" data-figma-bg-blur-radius="32">
<rect x="252.75" y="244.75" width="80" height="80" rx="16" stroke="#F8F8F8" style="mix-blend-mode:luminosity" stroke-width="1.5"/>
</g>
<foreignObject x="116" y="116" width="185.5" height="209.5"><div xmlns="http://www.w3.org/1999/xhtml" style="backdrop-filter:blur(16px);clip-path:url(#bgblur_2_3022_51061_clip_path);height:100%;width:100%"></div></foreignObject><g opacity="0.1" data-figma-bg-blur-radius="32">
<rect x="84.75" y="76.75" width="80" height="80" rx="16" stroke="#F8F8F8" style="mix-blend-mode:luminosity" stroke-width="1.5"/>
</g>
<foreignObject x="116" y="116" width="185.5" height="209.5"><div xmlns="http://www.w3.org/1999/xhtml" style="backdrop-filter:blur(16px);clip-path:url(#bgblur_3_3022_51061_clip_path);height:100%;width:100%"></div></foreignObject><g opacity="0.1" data-figma-bg-blur-radius="32">
<rect x="84.75" y="244.75" width="80" height="80" rx="16" stroke="#F8F8F8" style="mix-blend-mode:luminosity" stroke-width="1.5"/>
</g>
</g>
<foreignObject x="136" y="44" width="145.5" height="145.5"><div xmlns="http://www.w3.org/1999/xhtml" style="backdrop-filter:blur(16px);clip-path:url(#bgblur_4_3022_51061_clip_path);height:100%;width:100%"></div></foreignObject><g data-figma-bg-blur-radius="32">
<rect x="168.75" y="76.75" width="80" height="80" rx="16" fill="#F8F8F8" fill-opacity="0.025" style="mix-blend-mode:luminosity"/>
<rect x="168.75" y="76.75" width="80" height="80" rx="16" stroke="url(#paint1_linear_3022_51061)" stroke-opacity="0.25" stroke-width="1.5"/>
</g>
<foreignObject x="85.75" y="10.75" width="210" height="212"><div xmlns="http://www.w3.org/1999/xhtml" style="backdrop-filter:blur(50px);clip-path:url(#bgblur_5_3022_51061_clip_path);height:100%;width:100%"></div></foreignObject><rect data-figma-bg-blur-radius="100" x="185.75" y="110.75" width="10" height="12" rx="5" fill="#F8F8F8" fill-opacity="0.1"/>
<foreignObject x="97.75" y="10.75" width="210" height="212"><div xmlns="http://www.w3.org/1999/xhtml" style="backdrop-filter:blur(50px);clip-path:url(#bgblur_6_3022_51061_clip_path);height:100%;width:100%"></div></foreignObject><rect data-figma-bg-blur-radius="100" x="197.75" y="110.75" width="10" height="12" rx="5" fill="#F8F8F8" fill-opacity="0.1"/>
<g filter="url(#filter6_dd_3022_51061)">
<rect x="209.75" y="106.75" width="10" height="20" rx="5" fill="url(#paint2_linear_3022_51061)" fill-opacity="0.5" shape-rendering="crispEdges"/>
</g>
<foreignObject x="121.75" y="10.75" width="210" height="212"><div xmlns="http://www.w3.org/1999/xhtml" style="backdrop-filter:blur(50px);clip-path:url(#bgblur_7_3022_51061_clip_path);height:100%;width:100%"></div></foreignObject><rect data-figma-bg-blur-radius="100" x="221.75" y="110.75" width="10" height="12" rx="5" fill="#F8F8F8" fill-opacity="0.1"/>
<foreignObject x="136" y="212" width="145.5" height="145.5"><div xmlns="http://www.w3.org/1999/xhtml" style="backdrop-filter:blur(16px);clip-path:url(#bgblur_8_3022_51061_clip_path);height:100%;width:100%"></div></foreignObject><g data-figma-bg-blur-radius="32">
<rect x="168.75" y="244.75" width="80" height="80" rx="16" fill="#F8F8F8" fill-opacity="0.025" style="mix-blend-mode:luminosity"/>
<rect x="168.75" y="244.75" width="80" height="80" rx="16" stroke="url(#paint3_linear_3022_51061)" stroke-opacity="0.25" stroke-width="1.5"/>
</g>
<foreignObject x="95.75" y="171.75" width="212" height="212"><div xmlns="http://www.w3.org/1999/xhtml" style="backdrop-filter:blur(50px);clip-path:url(#bgblur_9_3022_51061_clip_path);height:100%;width:100%"></div></foreignObject><rect data-figma-bg-blur-radius="100" x="195.75" y="271.75" width="12" height="12" rx="6" fill="#F8F8F8" fill-opacity="0.1"/>
<foreignObject x="95.75" y="185.75" width="212" height="212"><div xmlns="http://www.w3.org/1999/xhtml" style="backdrop-filter:blur(50px);clip-path:url(#bgblur_10_3022_51061_clip_path);height:100%;width:100%"></div></foreignObject><rect data-figma-bg-blur-radius="100" x="195.75" y="285.75" width="12" height="12" rx="6" fill="#F8F8F8" fill-opacity="0.1"/>
<g filter="url(#filter11_dd_3022_51061)">
<rect x="209.75" y="271.75" width="12" height="12" rx="6" fill="url(#paint4_linear_3022_51061)" fill-opacity="0.5" shape-rendering="crispEdges"/>
</g>
<foreignObject x="109.75" y="185.75" width="212" height="212"><div xmlns="http://www.w3.org/1999/xhtml" style="backdrop-filter:blur(50px);clip-path:url(#bgblur_11_3022_51061_clip_path);height:100%;width:100%"></div></foreignObject><rect data-figma-bg-blur-radius="100" x="209.75" y="285.75" width="12" height="12" rx="6" fill="#F8F8F8" fill-opacity="0.1"/>
<foreignObject x="220" y="128" width="145.5" height="145.5"><div xmlns="http://www.w3.org/1999/xhtml" style="backdrop-filter:blur(16px);clip-path:url(#bgblur_12_3022_51061_clip_path);height:100%;width:100%"></div></foreignObject><g data-figma-bg-blur-radius="32">
<rect x="252.75" y="160.75" width="80" height="80" rx="16" fill="#F8F8F8" fill-opacity="0.025" style="mix-blend-mode:luminosity"/>
<rect x="252.75" y="160.75" width="80" height="80" rx="16" stroke="url(#paint5_linear_3022_51061)" stroke-opacity="0.25" stroke-width="1.5"/>
</g>
<foreignObject x="172.75" y="90.75" width="240" height="220"><div xmlns="http://www.w3.org/1999/xhtml" style="backdrop-filter:blur(50px);clip-path:url(#bgblur_13_3022_51061_clip_path);height:100%;width:100%"></div></foreignObject><rect data-figma-bg-blur-radius="100" x="272.75" y="190.75" width="40" height="20" rx="10" fill="#F8F8F8" fill-opacity="0.1"/>
<g filter="url(#filter15_dd_3022_51061)">
<circle cx="302.75" cy="200.75" r="6" fill="url(#paint6_linear_3022_51061)" fill-opacity="0.5" shape-rendering="crispEdges"/>
</g>
<foreignObject x="52" y="128" width="145.5" height="145.5"><div xmlns="http://www.w3.org/1999/xhtml" style="backdrop-filter:blur(16px);clip-path:url(#bgblur_14_3022_51061_clip_path);height:100%;width:100%"></div></foreignObject><g data-figma-bg-blur-radius="32">
<rect x="84.75" y="160.75" width="80" height="80" rx="16" fill="#F8F8F8" fill-opacity="0.025" style="mix-blend-mode:luminosity"/>
<rect x="84.75" y="160.75" width="80" height="80" rx="16" stroke="url(#paint7_linear_3022_51061)" stroke-opacity="0.25" stroke-width="1.5"/>
</g>
<foreignObject x="8.75" y="84.75" width="232" height="232"><div xmlns="http://www.w3.org/1999/xhtml" style="backdrop-filter:blur(50px);clip-path:url(#bgblur_15_3022_51061_clip_path);height:100%;width:100%"></div></foreignObject><rect data-figma-bg-blur-radius="100" x="108.75" y="184.75" width="32" height="32" rx="16" fill="#F8F8F8" fill-opacity="0.1"/>
<g filter="url(#filter18_dd_3022_51061)">
<path d="M136.75 200.75C136.75 207.377 131.377 212.75 124.75 212.75C118.123 212.75 112.75 207.377 112.75 200.75C112.75 194.123 118.123 188.75 124.75 188.75C131.377 188.75 136.75 194.123 136.75 200.75ZM116.876 200.75C116.876 205.099 120.401 208.624 124.75 208.624C129.099 208.624 132.624 205.099 132.624 200.75C132.624 196.401 129.099 192.876 124.75 192.876C120.401 192.876 116.876 196.401 116.876 200.75Z" fill="url(#paint8_linear_3022_51061)" fill-opacity="0.5" shape-rendering="crispEdges"/>
</g>
<foreignObject x="136" y="128" width="145.5" height="161.5"><div xmlns="http://www.w3.org/1999/xhtml" style="backdrop-filter:blur(16px);clip-path:url(#bgblur_16_3022_51061_clip_path);height:100%;width:100%"></div></foreignObject><g filter="url(#filter19_d_3022_51061)" data-figma-bg-blur-radius="32">
<rect x="168.75" y="160.75" width="80" height="80" rx="16" fill="#F8F8F8" fill-opacity="0.05" style="mix-blend-mode:luminosity" shape-rendering="crispEdges"/>
<rect x="168.75" y="160.75" width="80" height="80" rx="16" stroke="url(#paint9_linear_3022_51061)" stroke-opacity="0.25" stroke-width="1.5" shape-rendering="crispEdges"/>
</g>
<foreignObject x="164.75" y="156.75" width="88" height="116"><div xmlns="http://www.w3.org/1999/xhtml" style="backdrop-filter:blur(6px);clip-path:url(#bgblur_18_3022_51061_clip_path);height:100%;width:100%"></div></foreignObject><g filter="url(#filter20_di_3022_51061)" data-figma-bg-blur-radius="12">
<g clip-path="url(#clip17_3022_51061)">
<rect x="176.75" y="168.75" width="64" height="64" rx="32" fill="#F8F8F8" fill-opacity="0.01" shape-rendering="crispEdges"/>
<path opacity="0.1" fill-rule="evenodd" clip-rule="evenodd" d="M202.75 196.75C203.855 196.75 204.75 195.855 204.75 194.75C204.75 193.645 203.855 192.75 202.75 192.75C201.645 192.75 200.75 193.645 200.75 194.75C200.75 195.855 201.645 196.75 202.75 196.75ZM208.75 196.75C209.855 196.75 210.75 195.855 210.75 194.75C210.75 193.645 209.855 192.75 208.75 192.75C207.645 192.75 206.75 193.645 206.75 194.75C206.75 195.855 207.645 196.75 208.75 196.75ZM216.75 194.75C216.75 195.855 215.855 196.75 214.75 196.75C213.645 196.75 212.75 195.855 212.75 194.75C212.75 193.645 213.645 192.75 214.75 192.75C215.855 192.75 216.75 193.645 216.75 194.75ZM208.75 202.75C209.855 202.75 210.75 201.855 210.75 200.75C210.75 199.645 209.855 198.75 208.75 198.75C207.645 198.75 206.75 199.645 206.75 200.75C206.75 201.855 207.645 202.75 208.75 202.75ZM204.75 200.75C204.75 201.855 203.855 202.75 202.75 202.75C201.645 202.75 200.75 201.855 200.75 200.75C200.75 199.645 201.645 198.75 202.75 198.75C203.855 198.75 204.75 199.645 204.75 200.75ZM214.75 202.75C215.855 202.75 216.75 201.855 216.75 200.75C216.75 199.645 215.855 198.75 214.75 198.75C213.645 198.75 212.75 199.645 212.75 200.75C212.75 201.855 213.645 202.75 214.75 202.75ZM210.75 206.75C210.75 207.855 209.855 208.75 208.75 208.75C207.645 208.75 206.75 207.855 206.75 206.75C206.75 205.645 207.645 204.75 208.75 204.75C209.855 204.75 210.75 205.645 210.75 206.75ZM202.75 208.75C203.855 208.75 204.75 207.855 204.75 206.75C204.75 205.645 203.855 204.75 202.75 204.75C201.645 204.75 200.75 205.645 200.75 206.75C200.75 207.855 201.645 208.75 202.75 208.75ZM216.75 206.75C216.75 207.855 215.855 208.75 214.75 208.75C213.645 208.75 212.75 207.855 212.75 206.75C212.75 205.645 213.645 204.75 214.75 204.75C215.855 204.75 216.75 205.645 216.75 206.75Z" fill="#F8F8F8"/>
<path d="M202.75 196.75C203.855 196.75 204.75 195.855 204.75 194.75C204.75 193.645 203.855 192.75 202.75 192.75C201.645 192.75 200.75 193.645 200.75 194.75C200.75 195.855 201.645 196.75 202.75 196.75Z" fill="#F8F8F8" fill-opacity="0.5"/>
<path d="M208.75 196.75C209.855 196.75 210.75 195.855 210.75 194.75C210.75 193.645 209.855 192.75 208.75 192.75C207.645 192.75 206.75 193.645 206.75 194.75C206.75 195.855 207.645 196.75 208.75 196.75Z" fill="#F8F8F8" fill-opacity="0.5"/>
<path d="M214.75 196.75C215.855 196.75 216.75 195.855 216.75 194.75C216.75 193.645 215.855 192.75 214.75 192.75C213.645 192.75 212.75 193.645 212.75 194.75C212.75 195.855 213.645 196.75 214.75 196.75Z" fill="#F8F8F8" fill-opacity="0.5"/>
<path d="M208.75 202.75C209.855 202.75 210.75 201.855 210.75 200.75C210.75 199.645 209.855 198.75 208.75 198.75C207.645 198.75 206.75 199.645 206.75 200.75C206.75 201.855 207.645 202.75 208.75 202.75Z" fill="#F8F8F8" fill-opacity="0.5"/>
<path d="M202.75 208.75C203.855 208.75 204.75 207.855 204.75 206.75C204.75 205.645 203.855 204.75 202.75 204.75C201.645 204.75 200.75 205.645 200.75 206.75C200.75 207.855 201.645 208.75 202.75 208.75Z" fill="#F8F8F8" fill-opacity="0.5"/>
<path d="M208.75 208.75C209.855 208.75 210.75 207.855 210.75 206.75C210.75 205.645 209.855 204.75 208.75 204.75C207.645 204.75 206.75 205.645 206.75 206.75C206.75 207.855 207.645 208.75 208.75 208.75Z" fill="#F8F8F8" fill-opacity="0.5"/>
<path d="M214.75 208.75C215.855 208.75 216.75 207.855 216.75 206.75C216.75 205.645 215.855 204.75 214.75 204.75C213.645 204.75 212.75 205.645 212.75 206.75C212.75 207.855 213.645 208.75 214.75 208.75Z" fill="#F8F8F8" fill-opacity="0.5"/>
<g filter="url(#filter21_f_3022_51061)">
<rect x="176.75" y="136.75" width="64" height="64" rx="32" fill="#F8F8F8" fill-opacity="0.2"/>
</g>
</g>
</g>
<defs>
<filter id="filter0_di_3022_51061" x="56" y="56" width="305.5" height="329.5" filterUnits="userSpaceOnUse" color-interpolation-filters="sRGB">
<feFlood flood-opacity="0" result="BackgroundImageFix"/>
<feColorMatrix in="SourceAlpha" type="matrix" values="0 0 0 0 0 0 0 0 0 0 0 0 0 0 0 0 0 0 127 0" result="hardAlpha"/>
<feMorphology radius="16" operator="erode" in="SourceAlpha" result="effect1_dropShadow_3022_51061"/>
<feOffset dy="32"/>
<feGaussianBlur stdDeviation="12"/>
<feComposite in2="hardAlpha" operator="out"/>
<feColorMatrix type="matrix" values="0 0 0 0 0 0 0 0 0 0 0 0 0 0 0 0 0 0 0.4 0"/>
<feBlend mode="multiply" in2="BackgroundImageFix" result="effect1_dropShadow_3022_51061"/>
<feBlend mode="normal" in="SourceGraphic" in2="effect1_dropShadow_3022_51061" result="shape"/>
<feColorMatrix in="SourceAlpha" type="matrix" values="0 0 0 0 0 0 0 0 0 0 0 0 0 0 0 0 0 0 127 0" result="hardAlpha"/>
<feOffset/>
<feGaussianBlur stdDeviation="4"/>
<feComposite in2="hardAlpha" operator="arithmetic" k2="-1" k3="1"/>
<feColorMatrix type="matrix" values="0 0 0 0 0.972549 0 0 0 0 0.972549 0 0 0 0 0.972549 0 0 0 0.25 0"/>
<feBlend mode="normal" in2="shape" result="effect2_innerShadow_3022_51061"/>
</filter>
<filter id="filter1_di_3022_51061" x="0" y="0" width="417.5" height="441.5" filterUnits="userSpaceOnUse" color-interpolation-filters="sRGB">
<feFlood flood-opacity="0" result="BackgroundImageFix"/>
<feColorMatrix in="SourceAlpha" type="matrix" values="0 0 0 0 0 0 0 0 0 0 0 0 0 0 0 0 0 0 127 0" result="hardAlpha"/>
<feMorphology radius="16" operator="erode" in="SourceAlpha" result="effect1_dropShadow_3022_51061"/>
<feOffset dy="32"/>
<feGaussianBlur stdDeviation="12"/>
<feComposite in2="hardAlpha" operator="out"/>
<feColorMatrix type="matrix" values="0 0 0 0 0 0 0 0 0 0 0 0 0 0 0 0 0 0 0.4 0"/>
<feBlend mode="multiply" in2="BackgroundImageFix" result="effect1_dropShadow_3022_51061"/>
<feBlend mode="normal" in="SourceGraphic" in2="effect1_dropShadow_3022_51061" result="shape"/>
<feColorMatrix in="SourceAlpha" type="matrix" values="0 0 0 0 0 0 0 0 0 0 0 0 0 0 0 0 0 0 127 0" result="hardAlpha"/>
<feOffset/>
<feGaussianBlur stdDeviation="4"/>
<feComposite in2="hardAlpha" operator="arithmetic" k2="-1" k3="1"/>
<feColorMatrix type="matrix" values="0 0 0 0 0.972549 0 0 0 0 0.972549 0 0 0 0 0.972549 0 0 0 0.25 0"/>
<feBlend mode="normal" in2="shape" result="effect2_innerShadow_3022_51061"/>
</filter>
<filter id="filter2_di_3022_51061" x="116" y="116" width="185.5" height="209.5" filterUnits="userSpaceOnUse" color-interpolation-filters="sRGB">
<feFlood flood-opacity="0" result="BackgroundImageFix"/>
<feColorMatrix in="SourceAlpha" type="matrix" values="0 0 0 0 0 0 0 0 0 0 0 0 0 0 0 0 0 0 127 0" result="hardAlpha"/>
<feMorphology radius="16" operator="erode" in="SourceAlpha" result="effect1_dropShadow_3022_51061"/>
<feOffset dy="32"/>
<feGaussianBlur stdDeviation="12"/>
<feComposite in2="hardAlpha" operator="out"/>
<feColorMatrix type="matrix" values="0 0 0 0 0 0 0 0 0 0 0 0 0 0 0 0 0 0 0.4 0"/>
<feBlend mode="multiply" in2="BackgroundImageFix" result="effect1_dropShadow_3022_51061"/>
<feBlend mode="normal" in="SourceGraphic" in2="effect1_dropShadow_3022_51061" result="shape"/>
<feColorMatrix in="SourceAlpha" type="matrix" values="0 0 0 0 0 0 0 0 0 0 0 0 0 0 0 0 0 0 127 0" result="hardAlpha"/>
<feOffset/>
<feGaussianBlur stdDeviation="4"/>
<feComposite in2="hardAlpha" operator="arithmetic" k2="-1" k3="1"/>
<feColorMatrix type="matrix" values="0 0 0 0 0.972549 0 0 0 0 0.972549 0 0 0 0 0.972549 0 0 0 0.25 0"/>
<feBlend mode="normal" in2="shape" result="effect2_innerShadow_3022_51061"/>
</filter>
<clipPath id="bgblur_0_3022_51061_clip_path" transform="translate(-116 -116)"><rect x="252.75" y="76.75" width="80" height="80" rx="16"/>
</clipPath><clipPath id="bgblur_1_3022_51061_clip_path" transform="translate(-116 -116)"><rect x="252.75" y="244.75" width="80" height="80" rx="16"/>
</clipPath><clipPath id="bgblur_2_3022_51061_clip_path" transform="translate(-116 -116)"><rect x="84.75" y="76.75" width="80" height="80" rx="16"/>
</clipPath><clipPath id="bgblur_3_3022_51061_clip_path" transform="translate(-116 -116)"><rect x="84.75" y="244.75" width="80" height="80" rx="16"/>
</clipPath><clipPath id="bgblur_4_3022_51061_clip_path" transform="translate(-136 -44)"><rect x="168.75" y="76.75" width="80" height="80" rx="16"/>
</clipPath><clipPath id="bgblur_5_3022_51061_clip_path" transform="translate(-85.75 -10.75)"><rect x="185.75" y="110.75" width="10" height="12" rx="5"/>
</clipPath><clipPath id="bgblur_6_3022_51061_clip_path" transform="translate(-97.75 -10.75)"><rect x="197.75" y="110.75" width="10" height="12" rx="5"/>
</clipPath><filter id="filter6_dd_3022_51061" x="200.75" y="105.75" width="22" height="32" filterUnits="userSpaceOnUse" color-interpolation-filters="sRGB">
<feFlood flood-opacity="0" result="BackgroundImageFix"/>
<feColorMatrix in="SourceAlpha" type="matrix" values="0 0 0 0 0 0 0 0 0 0 0 0 0 0 0 0 0 0 127 0" result="hardAlpha"/>
<feOffset dx="-3" dy="5"/>
<feGaussianBlur stdDeviation="3"/>
<feColorMatrix type="matrix" values="0 0 0 0 0 0 0 0 0 0 0 0 0 0 0 0 0 0 0.2 0"/>
<feBlend mode="normal" in2="BackgroundImageFix" result="effect1_dropShadow_3022_51061"/>
<feColorMatrix in="SourceAlpha" type="matrix" values="0 0 0 0 0 0 0 0 0 0 0 0 0 0 0 0 0 0 127 0" result="hardAlpha"/>
<feOffset dx="-1" dy="2"/>
<feGaussianBlur stdDeviation="1.5"/>
<feComposite in2="hardAlpha" operator="out"/>
<feColorMatrix type="matrix" values="0 0 0 0 0 0 0 0 0 0 0 0 0 0 0 0 0 0 0.1 0"/>
<feBlend mode="normal" in2="effect1_dropShadow_3022_51061" result="effect2_dropShadow_3022_51061"/>
<feBlend mode="normal" in="SourceGraphic" in2="effect2_dropShadow_3022_51061" result="shape"/>
</filter>
<clipPath id="bgblur_7_3022_51061_clip_path" transform="translate(-121.75 -10.75)"><rect x="221.75" y="110.75" width="10" height="12" rx="5"/>
</clipPath><clipPath id="bgblur_8_3022_51061_clip_path" transform="translate(-136 -212)"><rect x="168.75" y="244.75" width="80" height="80" rx="16"/>
</clipPath><clipPath id="bgblur_9_3022_51061_clip_path" transform="translate(-95.75 -171.75)"><rect x="195.75" y="271.75" width="12" height="12" rx="6"/>
</clipPath><clipPath id="bgblur_10_3022_51061_clip_path" transform="translate(-95.75 -185.75)"><rect x="195.75" y="285.75" width="12" height="12" rx="6"/>
</clipPath><filter id="filter11_dd_3022_51061" x="200.75" y="270.75" width="24" height="24" filterUnits="userSpaceOnUse" color-interpolation-filters="sRGB">
<feFlood flood-opacity="0" result="BackgroundImageFix"/>
<feColorMatrix in="SourceAlpha" type="matrix" values="0 0 0 0 0 0 0 0 0 0 0 0 0 0 0 0 0 0 127 0" result="hardAlpha"/>
<feOffset dx="-3" dy="5"/>
<feGaussianBlur stdDeviation="3"/>
<feColorMatrix type="matrix" values="0 0 0 0 0 0 0 0 0 0 0 0 0 0 0 0 0 0 0.2 0"/>
<feBlend mode="normal" in2="BackgroundImageFix" result="effect1_dropShadow_3022_51061"/>
<feColorMatrix in="SourceAlpha" type="matrix" values="0 0 0 0 0 0 0 0 0 0 0 0 0 0 0 0 0 0 127 0" result="hardAlpha"/>
<feOffset dx="-1" dy="2"/>
<feGaussianBlur stdDeviation="1.5"/>
<feComposite in2="hardAlpha" operator="out"/>
<feColorMatrix type="matrix" values="0 0 0 0 0 0 0 0 0 0 0 0 0 0 0 0 0 0 0.1 0"/>
<feBlend mode="normal" in2="effect1_dropShadow_3022_51061" result="effect2_dropShadow_3022_51061"/>
<feBlend mode="normal" in="SourceGraphic" in2="effect2_dropShadow_3022_51061" result="shape"/>
</filter>
<clipPath id="bgblur_11_3022_51061_clip_path" transform="translate(-109.75 -185.75)"><rect x="209.75" y="285.75" width="12" height="12" rx="6"/>
</clipPath><clipPath id="bgblur_12_3022_51061_clip_path" transform="translate(-220 -128)"><rect x="252.75" y="160.75" width="80" height="80" rx="16"/>
</clipPath><clipPath id="bgblur_13_3022_51061_clip_path" transform="translate(-172.75 -90.75)"><rect x="272.75" y="190.75" width="40" height="20" rx="10"/>
</clipPath><filter id="filter15_dd_3022_51061" x="287.75" y="193.75" width="24" height="24" filterUnits="userSpaceOnUse" color-interpolation-filters="sRGB">
<feFlood flood-opacity="0" result="BackgroundImageFix"/>
<feColorMatrix in="SourceAlpha" type="matrix" values="0 0 0 0 0 0 0 0 0 0 0 0 0 0 0 0 0 0 127 0" result="hardAlpha"/>
<feOffset dx="-3" dy="5"/>
<feGaussianBlur stdDeviation="3"/>
<feColorMatrix type="matrix" values="0 0 0 0 0 0 0 0 0 0 0 0 0 0 0 0 0 0 0.2 0"/>
<feBlend mode="normal" in2="BackgroundImageFix" result="effect1_dropShadow_3022_51061"/>
<feColorMatrix in="SourceAlpha" type="matrix" values="0 0 0 0 0 0 0 0 0 0 0 0 0 0 0 0 0 0 127 0" result="hardAlpha"/>
<feOffset dx="-1" dy="2"/>
<feGaussianBlur stdDeviation="1.5"/>
<feComposite in2="hardAlpha" operator="out"/>
<feColorMatrix type="matrix" values="0 0 0 0 0 0 0 0 0 0 0 0 0 0 0 0 0 0 0.1 0"/>
<feBlend mode="normal" in2="effect1_dropShadow_3022_51061" result="effect2_dropShadow_3022_51061"/>
<feBlend mode="normal" in="SourceGraphic" in2="effect2_dropShadow_3022_51061" result="shape"/>
</filter>
<clipPath id="bgblur_14_3022_51061_clip_path" transform="translate(-52 -128)"><rect x="84.75" y="160.75" width="80" height="80" rx="16"/>
</clipPath><clipPath id="bgblur_15_3022_51061_clip_path" transform="translate(-8.75 -84.75)"><rect x="108.75" y="184.75" width="32" height="32" rx="16"/>
</clipPath><filter id="filter18_dd_3022_51061" x="103.75" y="187.75" width="36" height="36" filterUnits="userSpaceOnUse" color-interpolation-filters="sRGB">
<feFlood flood-opacity="0" result="BackgroundImageFix"/>
<feColorMatrix in="SourceAlpha" type="matrix" values="0 0 0 0 0 0 0 0 0 0 0 0 0 0 0 0 0 0 127 0" result="hardAlpha"/>
<feOffset dx="-3" dy="5"/>
<feGaussianBlur stdDeviation="3"/>
<feColorMatrix type="matrix" values="0 0 0 0 0 0 0 0 0 0 0 0 0 0 0 0 0 0 0.2 0"/>
<feBlend mode="normal" in2="BackgroundImageFix" result="effect1_dropShadow_3022_51061"/>
<feColorMatrix in="SourceAlpha" type="matrix" values="0 0 0 0 0 0 0 0 0 0 0 0 0 0 0 0 0 0 127 0" result="hardAlpha"/>
<feOffset dx="-1" dy="2"/>
<feGaussianBlur stdDeviation="1.5"/>
<feComposite in2="hardAlpha" operator="out"/>
<feColorMatrix type="matrix" values="0 0 0 0 0 0 0 0 0 0 0 0 0 0 0 0 0 0 0.1 0"/>
<feBlend mode="normal" in2="effect1_dropShadow_3022_51061" result="effect2_dropShadow_3022_51061"/>
<feBlend mode="normal" in="SourceGraphic" in2="effect2_dropShadow_3022_51061" result="shape"/>
</filter>
<filter id="filter19_d_3022_51061" x="136" y="128" width="145.5" height="161.5" filterUnits="userSpaceOnUse" color-interpolation-filters="sRGB">
<feFlood flood-opacity="0" result="BackgroundImageFix"/>
<feColorMatrix in="SourceAlpha" type="matrix" values="0 0 0 0 0 0 0 0 0 0 0 0 0 0 0 0 0 0 127 0" result="hardAlpha"/>
<feOffset dy="24"/>
<feGaussianBlur stdDeviation="12"/>
<feComposite in2="hardAlpha" operator="out"/>
<feColorMatrix type="matrix" values="0 0 0 0 0 0 0 0 0 0 0 0 0 0 0 0 0 0 0.3 0"/>
<feBlend mode="multiply" in2="BackgroundImageFix" result="effect1_dropShadow_3022_51061"/>
<feBlend mode="normal" in="SourceGraphic" in2="effect1_dropShadow_3022_51061" result="shape"/>
</filter>
<clipPath id="bgblur_16_3022_51061_clip_path" transform="translate(-136 -128)"><rect x="168.75" y="160.75" width="80" height="80" rx="16"/>
</clipPath><filter id="filter20_di_3022_51061" x="164.75" y="156.75" width="88" height="116" filterUnits="userSpaceOnUse" color-interpolation-filters="sRGB">
<feFlood flood-opacity="0" result="BackgroundImageFix"/>
<feColorMatrix in="SourceAlpha" type="matrix" values="0 0 0 0 0 0 0 0 0 0 0 0 0 0 0 0 0 0 127 0" result="hardAlpha"/>
<feMorphology radius="16" operator="erode" in="SourceAlpha" result="effect1_dropShadow_3022_51061"/>
<feOffset dy="32"/>
<feGaussianBlur stdDeviation="12"/>
<feComposite in2="hardAlpha" operator="out"/>
<feColorMatrix type="matrix" values="0 0 0 0 0 0 0 0 0 0 0 0 0 0 0 0 0 0 0.4 0"/>
<feBlend mode="multiply" in2="BackgroundImageFix" result="effect1_dropShadow_3022_51061"/>
<feBlend mode="normal" in="SourceGraphic" in2="effect1_dropShadow_3022_51061" result="shape"/>
<feColorMatrix in="SourceAlpha" type="matrix" values="0 0 0 0 0 0 0 0 0 0 0 0 0 0 0 0 0 0 127 0" result="hardAlpha"/>
<feOffset/>
<feGaussianBlur stdDeviation="4"/>
<feComposite in2="hardAlpha" operator="arithmetic" k2="-1" k3="1"/>
<feColorMatrix type="matrix" values="0 0 0 0 0.972549 0 0 0 0 0.972549 0 0 0 0 0.972549 0 0 0 0.25 0"/>
<feBlend mode="normal" in2="shape" result="effect2_innerShadow_3022_51061"/>
</filter>
<clipPath id="bgblur_18_3022_51061_clip_path" transform="translate(-164.75 -156.75)"><rect x="176.75" y="168.75" width="64" height="64" rx="32"/>
</clipPath><filter id="filter21_f_3022_51061" x="144.75" y="104.75" width="128" height="128" filterUnits="userSpaceOnUse" color-interpolation-filters="sRGB">
<feFlood flood-opacity="0" result="BackgroundImageFix"/>
<feBlend mode="normal" in="SourceGraphic" in2="BackgroundImageFix" result="shape"/>
<feGaussianBlur stdDeviation="16" result="effect1_foregroundBlur_3022_51061"/>
</filter>
<radialGradient id="paint0_radial_3022_51061" cx="0" cy="0" r="1" gradientUnits="userSpaceOnUse" gradientTransform="translate(208.75 200.75) rotate(90) scale(124)">
<stop stop-color="#D9D9D9"/>
<stop offset="1" stop-color="#737373" stop-opacity="0"/>
</radialGradient>
<linearGradient id="paint1_linear_3022_51061" x1="208.75" y1="76.75" x2="243.552" y2="164.6" gradientUnits="userSpaceOnUse">
<stop stop-color="white" stop-opacity="0.4"/>
<stop offset="0.4" stop-color="white" stop-opacity="0.01"/>
<stop offset="0.6" stop-color="white" stop-opacity="0.01"/>
<stop offset="1" stop-color="white" stop-opacity="0.1"/>
</linearGradient>
<linearGradient id="paint2_linear_3022_51061" x1="214.75" y1="106.75" x2="214.75" y2="126.75" gradientUnits="userSpaceOnUse">
<stop stop-color="#F8F8F8" stop-opacity="0.5"/>
<stop offset="1" stop-color="#F8F8F8" stop-opacity="0.05"/>
</linearGradient>
<linearGradient id="paint3_linear_3022_51061" x1="208.75" y1="244.75" x2="243.552" y2="332.6" gradientUnits="userSpaceOnUse">
<stop stop-color="white" stop-opacity="0.4"/>
<stop offset="0.4" stop-color="white" stop-opacity="0.01"/>
<stop offset="0.6" stop-color="white" stop-opacity="0.01"/>
<stop offset="1" stop-color="white" stop-opacity="0.1"/>
</linearGradient>
<linearGradient id="paint4_linear_3022_51061" x1="215.75" y1="271.75" x2="215.75" y2="283.75" gradientUnits="userSpaceOnUse">
<stop stop-color="#F8F8F8" stop-opacity="0.5"/>
<stop offset="1" stop-color="#F8F8F8" stop-opacity="0.05"/>
</linearGradient>
<linearGradient id="paint5_linear_3022_51061" x1="292.75" y1="160.75" x2="327.552" y2="248.6" gradientUnits="userSpaceOnUse">
<stop stop-color="white" stop-opacity="0.4"/>
<stop offset="0.4" stop-color="white" stop-opacity="0.01"/>
<stop offset="0.6" stop-color="white" stop-opacity="0.01"/>
<stop offset="1" stop-color="white" stop-opacity="0.1"/>
</linearGradient>
<linearGradient id="paint6_linear_3022_51061" x1="302.75" y1="194.75" x2="302.75" y2="206.75" gradientUnits="userSpaceOnUse">
<stop stop-color="#F8F8F8" stop-opacity="0.5"/>
<stop offset="1" stop-color="#F8F8F8" stop-opacity="0.05"/>
</linearGradient>
<linearGradient id="paint7_linear_3022_51061" x1="124.75" y1="160.75" x2="159.552" y2="248.6" gradientUnits="userSpaceOnUse">
<stop stop-color="white" stop-opacity="0.4"/>
<stop offset="0.4" stop-color="white" stop-opacity="0.01"/>
<stop offset="0.6" stop-color="white" stop-opacity="0.01"/>
<stop offset="1" stop-color="white" stop-opacity="0.1"/>
</linearGradient>
<linearGradient id="paint8_linear_3022_51061" x1="124.75" y1="188.75" x2="124.75" y2="212.75" gradientUnits="userSpaceOnUse">
<stop stop-color="#F8F8F8" stop-opacity="0.5"/>
<stop offset="1" stop-color="#F8F8F8" stop-opacity="0.05"/>
</linearGradient>
<linearGradient id="paint9_linear_3022_51061" x1="208.75" y1="160.75" x2="243.552" y2="248.6" gradientUnits="userSpaceOnUse">
<stop stop-color="white" stop-opacity="0.4"/>
<stop offset="0.4" stop-color="white" stop-opacity="0.01"/>
<stop offset="0.6" stop-color="white" stop-opacity="0.01"/>
<stop offset="1" stop-color="white" stop-opacity="0.1"/>
</linearGradient>
<clipPath id="clip17_3022_51061">
<rect x="176.75" y="168.75" width="64" height="64" rx="32" fill="white"/>
</clipPath>
</defs>
</svg>
